<svg xmlns="http://www.w3.org/2000/svg" xmlns:xlink="http://www.w3.org/1999/xlink" viewBox="0 0 100 100" version="1.1" xml:space="preserve" style="" x="0px" y="0px" fill-rule="evenodd" clip-rule="evenodd" stroke-linejoin="round" stroke-miterlimit="1.41421"><path d="M17.1716,43c-5.68434e-14,-5.68434e-14 21.8135,-21.8135 27.636,-27.636c0.781047,-0.781041 2.04737,-0.781041 2.82842,-2.51471e-07c1.88169,1.88169 5.18939,5.18939 7.07108,7.07108c0.781041,0.781047 0.781041,2.04737 -3.55754e-07,2.82842l-17.7365,17.7365l51.201,2.42082e-11c1.10456,7.77574e-06 1.99998,0.895431 1.99999,1.99999c0,2.66111 0,7.33891 3.29692e-11,10c-4.49767e-06,1.10456 -0.895425,1.99998 -1.99999,1.99999l-51.201,7.10543e-15l17.7365,17.7365c0.781041,0.781047 0.781041,2.04737 2.51471e-07,2.82842c-1.88169,1.88169 -5.18939,5.18939 -7.07108,7.07108c-0.781047,0.781041 -2.04737,0.781041 -2.82842,-3.55754e-07l-26.636,-26.636c-1.42109e-14,2.84217e-14 -4.28821,-4.28653 -6.58551,-6.58292c-0.781202,-0.780894 -0.781452,-2.04722 -0.000558113,-2.82843l5.58607,-5.58826l0,-0.000393073Z" style="" fill="#000"></path></svg>